<svg xmlns="http://www.w3.org/2000/svg" viewBox="-46.8 4.5 340.4 84.5">
  <path d="m 215 6.5 c -0.2 1.1 -0.2 2.3 -0.1 2.7 c 0 0.4 0.3 2.5 0.7 4.7 c 0.6 3.4 0.4 4.1 -1 4.1 c -1.3 0 -1.6 0.5 -1.1 2 c 0.4 1.4 0.2 2 -0.8 2 s -1.5 1.1 -1.5 3.2 c -0.1 1.8 -0.9 5.8 -2 8.8 c -1.8 5.2 -2.1 5.5 -5.5 5.8 c -2.8 0.2 -3.6 0.8 -3.9 2.5 c -0.2 1.2 -1 2.3 -1.9 2.5 c -1.2 0.2 -2.4 -2.6 -5.5 -13.3 l -3.9 -13.5 h -4.2 c -6.1 0 -6.9 1.4 -7.8 12.7 c -1 14.8 -0.8 14.3 -7 14.3 c -4.8 0 -5.4 0.3 -5.8 2.2 c -0.4 2 -0.4 1.9 -0.6 -0.5 c -0.1 -2 -0.6 -2.7 -2.1 -2.7 c -1.4 0 -2 -0.7 -2 -2.1 c 0 -1.5 -0.5 -2 -2.2 -1.7 c -1.6 0.2 -2.2 0.9 -2 2 c 0.2 1 -0.2 1.8 -0.8 1.8 c -0.5 0 -1 1.1 -1 2.5 c 0 2.4 -0.3 2.5 -5.4 2.5 c -4.9 0 -5.5 0.2 -5.8 2.2 c -0.2 1.5 -1.1 2.4 -2.5 2.6 c -1.5 0.2 -2.3 1 -2.3 2.3 c 0 1.8 -0.9 1.9 -79 0.9 c -12.8 0 -23.9 -0.4 -24.7 -0.9 c -2.2 -1.4 2 -4.7 7.4 -5.7 c 5 -0.9 6.9 -2.9 4 -4 c -0.9 -0.4 -2.1 0 -2.8 1 c -0.9 1.3 -2.4 1.7 -5.7 1.4 c -6.5 -0.5 -6.4 -2.8 0.2 -2.9 c 8.1 -0.2 2 -1.7 -6.7 -1.7 c -8.4 0 -14.9 1.5 -7.2 1.7 c 5.4 0.1 6 1.2 1.7 2.8 c -1.9 0.7 -3 1.8 -3 3.1 c 0 2.1 2.2 4.5 3.4 3.7 c 0.3 -0.3 0.2 0 -0.3 0.6 c -0.5 0.7 -5 0.9 -12.7 0.6 c -6.6 -0.3 -13.5 -0.6 -15.4 -0.6 c -2.7 -0.1 -3.1 -0.3 -2 -1.1 c 0.8 -0.5 2.7 -1 4.2 -1 c 1.7 0 3.1 -0.8 3.8 -2 c 0.8 -1.5 2.1 -2 5.5 -2 c 4.6 0 6.5 -1.4 4.6 -3.3 c -0.9 -0.9 -1.6 -0.8 -3.1 0.1 c -2.4 1.4 -11 1.6 -11 0.2 c 0 -0.6 2 -1 4.5 -1 s 4.5 -0.5 4.5 -1 c 0 -1.3 -20.7 -1.3 -21.5 -0.1 c -0.3 0.6 1.6 1.1 4.2 1.3 c 4.7 0.3 4.7 0.4 2 1.6 c -1.5 0.6 -3 1.9 -3.4 2.8 c -0.7 2 1 5 2.7 4.6 c 0.6 -0.1 0.9 0.2 0.5 0.8 c -0.3 0.5 -3.7 1 -7.6 1 h -6.9 v 2.9 c 0 2.4 0.5 3 2.5 3.3 c 1.4 0.2 2.5 0.7 2.5 1.3 c 0 0.6 -5.7 1.1 -14.5 1.3 c -8 0.1 -14.5 0.6 -14.5 1 c 0 0.5 0.7 3.1 1.5 6 c 1.9 6.3 5.7 10.9 11 13.3 c 3.8 1.8 9.9 1.9 188.3 2.9 h 127 l 1.7 -6.4 c 1.7 -6.5 8.3 -21.1 9.9 -22.2 c 2.9 -1.8 -0.5 -2.4 -13 -2.4 c -11.7 0 -14 -0.2 -14.5 -1.6 c -0.9 -2.4 -0.9 -2.4 4.2 -2.5 l 4.7 -0.2 l -6 -0.8 c -10.6 -1.6 -13 -1.7 -15.2 -1.2 c -2.2 0.5 -3.3 3.3 -1.3 3.3 c 0.6 0 1 0.7 1 1.5 c 0 1.2 -1.3 1.5 -5.5 1.5 h -5.5 v -5.3 c 0 -7.3 -1 -12.7 -2.4 -12.7 c -0.7 0 -1 -1.4 -0.8 -4 l 0.4 -4 h -4.6 c -4.7 0 -8.1 1.3 -10.2 3.9 c -0.9 1.2 -1.3 0.5 -1.9 -3.6 c -0.4 -2.9 -0.4 -6.1 0 -7.2 c 0.4 -1.4 -0.1 -3.1 -1.4 -5 c -1.3 -1.8 -2.1 -4.6 -2.2 -7.3 c 0 -2.3 -0.4 -5.2 -0.9 -6.3 l -0.9 -2 l -0.1 2 z" fill="#000000"/>
</svg>