<svg xmlns="http://www.w3.org/2000/svg" viewBox="-151.073 6.26859 441.9 84.73">
  <path d="M 213.9 7.5 c 0 1.1 0 4.1 0.1 6.8 c 0.1 3.5 -0.3 4.9 -1.4 5.3 c -0.9 0.3 -1.3 1 -1 1.5 c 0.3 0.5 -0.2 1.2 -1 1.5 c -0.9 0.3 -1.6 1.4 -1.6 2.4 c 0 3.2 -4.2 13 -5.6 13 c -0.9 0 -1.4 -1.7 -1.6 -5.3 l -0.3 -5.2 h -13 l 0.3 5.1 c 0.3 4 0 5.3 -1.2 5.7 c -1 0.4 -1.6 1.9 -1.6 4.2 V 46 h -23 v 14 H -127 v 2.5 c 0 2 0.5 2.5 2.5 2.5 c 1.6 0 2.5 0.6 2.5 1.5 c 0 1.3 -2.3 1.5 -14.5 1.5 c -16.4 0 -15.9 -0.3 -13 7.9 c 2.1 6.1 5.1 9.8 9.8 12.4 l 4.2 2.2 l 127.5 0.5 L 279 91 l 0.6 -2.7 c 1.4 -6.4 3.9 -13.2 7.3 -19.8 c 2 -3.9 3.7 -7.3 3.9 -7.7 c 0.2 -0.4 -11.3 -0.9 -25.5 -1 l -25.8 -0.3 l -0.2 -4 c -0.6 -9.7 -1.5 -14.5 -2.6 -14.5 c -0.9 0 -1.1 -1.3 -0.9 -4 l 0.4 -4 h -5 c -3 0 -5.4 0.5 -5.9 1.3 c -0.4 0.7 -2 1.8 -3.5 2.4 c -1.6 0.7 -2.8 1.9 -2.8 2.8 c 0 0.8 -0.5 1.5 -1.1 1.5 c -0.7 0 -1 -3.3 -1 -9.8 c 0.1 -12.3 -0.8 -23.4 -2 -24.7 c -0.6 -0.5 -0.9 -0.2 -1 1 z" fill="#000000"/>
</svg>