<svg xmlns="http://www.w3.org/2000/svg" viewBox="-28.1 21.5 181.2 39">
  <path d="M 57 25 c -0.5 2 -1.3 2.5 -4.4 2.8 l -3.7 0.3 l -1 9.2 c -0.5 5 -1.3 9.5 -1.7 9.8 c -0.4 0.4 -2.5 0.4 -42.2 -1.1 c -3.9 -0.6 -4.1 -0.9 -4.1 -4.1 c 0 -2.8 -0.4 -3.5 -2.6 -4 c -1.4 -0.4 -3 -0.2 -3.7 0.5 c -0.6 0.6 -2.5 1.1 -4.2 1.2 l -3 0.1 l 3.3 0.9 c 1.9 0.6 3.2 1.6 3.2 2.6 c 0 1.4 -1.2 1.5 -10.5 0.9 c -5.8 -0.4 -10.5 -0.5 -10.5 -0.2 s 2.8 4.1 6.2 8.6 l 6.1 8 h 99.7 c 32.1 0 59.7 -0.3 61.4 -0.6 c 2.7 -0.6 3.1 -1.1 3.1 -3.8 c 0 -2.6 0.5 -3.4 2.7 -4.2 c 2.5 -0.9 2.6 -1 0.9 -2.6 c -1.1 -1.2 -3.3 -1.8 -6.2 -1.8 c -4.2 0 -5.9 -1.2 -3.1 -2.3 c 0.6 -0.3 0.3 -0.6 -0.8 -0.7 c -1.7 -0.2 -1.6 -0.3 0.5 -0.9 c 2.1 -0.7 1.7 -0.9 -2.7 -1.5 c -6.1 -0.9 -7.3 -0.4 -7.3 3 c 0 2.3 -0.2 2.4 -7.5 2.4 s -7.5 -0.1 -7.5 -2.5 c 0 -2 0.5 -2.5 2.6 -2.5 c 4.6 0 2 -2.5 -2.9 -2.8 c -4.4 -0.3 -4.7 -0.5 -4.7 -3.1 c 0 -1.7 -0.7 -3.1 -1.6 -3.5 c -2.5 -1 -6.2 -0.7 -7 0.5 c -0.3 0.6 -1.9 0.9 -3.5 0.7 c -1.5 -0.3 -2.6 -0.1 -2.3 0.4 c 0.3 0.4 1.3 0.8 2.2 0.9 c 1.4 0 1.3 0.2 -0.3 0.9 c -1.7 0.7 -1.7 0.9 -0.2 0.9 c 0.9 0.1 1.7 0.6 1.7 1.1 c 0 0.7 -2.2 1 -5.7 0.8 l -5.8 -0.3 l -0.7 -4.4 c -0.4 -2.4 -0.9 -4.5 -1.1 -4.7 c -0.1 -0.2 -2.2 -0.4 -4.6 -0.6 l -4.3 -0.3 l -1.7 5.3 c -0.9 3 -2 5.3 -2.5 5.3 s -2 -3.7 -3.3 -8.2 c -1.3 -4.5 -2.6 -8.6 -2.9 -9.1 c -0.3 -0.4 -2 -0.8 -3.9 -0.8 c -2.6 0 -3.4 0.5 -3.9 2.4 z" fill="#000000"/>
</svg>